<svg xmlns="http://www.w3.org/2000/svg" viewBox="0 0 64 64">
  <defs>
    <linearGradient id="bg" x1="0%" y1="0%" x2="100%" y2="100%">
      <stop offset="0%" style="stop-color:#6C5CE7"/>
      <stop offset="100%" style="stop-color:#A78BFA"/>
    </linearGradient>
    <linearGradient id="fg" x1="0%" y1="0%" x2="100%" y2="0%">
      <stop offset="0%" style="stop-color:#fff;stop-opacity:0.95"/>
      <stop offset="100%" style="stop-color:#E0D7FF;stop-opacity:0.85"/>
    </linearGradient>
  </defs>
  <rect x="4" y="4" width="56" height="56" rx="14" ry="14" fill="url(#bg)"/>
  <!-- Mini person -->
  <circle cx="32" cy="18" r="6" fill="url(#fg)" opacity="0.95"/>
  <path d="M24,28 Q24,24 28,23 Q32,22 36,23 Q40,24 40,28" fill="url(#fg)" opacity="0.9"/>
  <!-- Flow lines -->
  <path d="M16,34 C22,34 26,40 32,40 C38,40 42,34 48,34" fill="none" stroke="url(#fg)" stroke-width="2.5" stroke-linecap="round" opacity="0.8"/>
  <path d="M20,41 C25,41 28,46 32,46 C36,46 39,41 44,41" fill="none" stroke="url(#fg)" stroke-width="2" stroke-linecap="round" opacity="0.6"/>
  <path d="M24,48 C27,48 30,52 32,52 C34,52 37,48 40,48" fill="none" stroke="url(#fg)" stroke-width="1.8" stroke-linecap="round" opacity="0.45"/>
  <!-- Arrow tip -->
  <polygon points="29,54 32,59 35,54" fill="url(#fg)" opacity="0.6"/>
</svg>
